<svg xmlns="http://www.w3.org/2000/svg" viewBox="0 0 512 512">
	<defs>
		<radialGradient id="bg" cx="50%" cy="40%" r="70%">
			<stop offset="0%" stop-color="#2d1854"/>
			<stop offset="100%" stop-color="#0a0515"/>
		</radialGradient>
		<linearGradient id="body" x1="30%" y1="20%" x2="70%" y2="100%">
			<stop offset="0%" stop-color="#9eff7a"/>
			<stop offset="50%" stop-color="#7ed957"/>
			<stop offset="100%" stop-color="#2e7d32"/>
		</linearGradient>
		<linearGradient id="leaf" x1="0%" y1="0%" x2="100%" y2="100%">
			<stop offset="0%" stop-color="#9eff7a"/>
			<stop offset="100%" stop-color="#4caf50"/>
		</linearGradient>
	</defs>

	<rect width="512" height="512" fill="url(#bg)" rx="80"/>

	<g transform="translate(256 280)">
		<ellipse cx="0" cy="160" rx="120" ry="20" fill="rgba(0,0,0,0.4)"/>

		<path d="M -30 -180 Q -30 -240 0 -260 Q 30 -240 30 -180 Z" fill="url(#leaf)"/>
		<path d="M -80 -150 Q -110 -200 -90 -240 Q -50 -220 -40 -170 Z" fill="url(#leaf)" opacity="0.9"/>
		<path d="M 80 -150 Q 110 -200 90 -240 Q 50 -220 40 -170 Z" fill="url(#leaf)" opacity="0.9"/>

		<ellipse cx="0" cy="0" rx="130" ry="150" fill="url(#body)"/>

		<ellipse cx="-45" cy="-40" rx="22" ry="30" fill="white"/>
		<ellipse cx="45" cy="-40" rx="22" ry="30" fill="white"/>
		<ellipse cx="-42" cy="-32" rx="12" ry="18" fill="#1a0f2e"/>
		<ellipse cx="48" cy="-32" rx="12" ry="18" fill="#1a0f2e"/>
		<ellipse cx="-38" cy="-40" rx="4" ry="6" fill="white"/>
		<ellipse cx="52" cy="-40" rx="4" ry="6" fill="white"/>

		<path d="M -30 50 Q 0 80 30 50" stroke="#1a0f2e" stroke-width="8" fill="none" stroke-linecap="round"/>

		<ellipse cx="-70" cy="20" rx="18" ry="14" fill="#ff8a80" opacity="0.6"/>
		<ellipse cx="70" cy="20" rx="18" ry="14" fill="#ff8a80" opacity="0.6"/>
	</g>

	<circle cx="100" cy="120" r="6" fill="#ffd700" opacity="0.8"/>
	<circle cx="420" cy="80" r="4" fill="#ffd700" opacity="0.6"/>
	<circle cx="380" cy="180" r="5" fill="#ffd700" opacity="0.7"/>
	<circle cx="60" cy="380" r="4" fill="#ffd700" opacity="0.6"/>
	<circle cx="440" cy="420" r="6" fill="#ffd700" opacity="0.8"/>
</svg>
